<svg width="601px" height="192px" viewBox="0 0 601 192" version="1.1" xmlns="http://www.w3.org/2000/svg" xmlns:xlink="http://www.w3.org/1999/xlink">
    <!-- Generator: Sketch 49 (51002) - http://www.bohemiancoding.com/sketch -->
    <title>iseak</title>
    <desc>Created with Sketch.</desc>
    <defs></defs>
    <g id="logo-iseak-wrapper" stroke="none" stroke-width="1" fill="none" fill-rule="evenodd">
        <g id="logo-iseak" transform="translate(-40.000000, -120.000000)" fill="#0033D8">
            <path d="M42,309 L79,309 L79,182 L42,182 L42,309 Z M40,140.744048 C40,150.505952 48.7857143,161 60.5,161 C71.7261905,161 81,150.994048 81,140.255952 C81,129.029762 70.9940476,120 60.5,120 C48.7857143,120 40,130.494048 40,140.744048 Z M210.987013,219.343173 C208.978355,191.446494 187.134199,177 153.991342,177 C115.82684,177 100.511969,198.420664 100.511969,218.097786 C100.511969,270.902214 177.844156,251.47417 177.844156,272.894834 C177.844156,283.356089 165.792208,286.095941 156.502165,286.095941 C145.705628,286.095941 134.658009,281.114391 134.155844,268.660517 L98,268.660517 C101.014134,306.520295 137.169978,312 155.246753,312 C208.47619,312 214,279.121771 214,269.158672 C214,217.350554 133.65368,237.276753 133.65368,214.361624 C133.65368,206.640221 143.194805,202.904059 152.737077,202.904059 C166.545455,202.904059 174.330151,209.380074 174.831169,220.090406 L210.987013,219.343173 Z M359,254.712177 L359,244.749077 C359,203.402214 332.102662,177 293.5,177 C254.897338,177 228,203.402214 228,244.749077 C228,285.597786 254.897338,312 293.5,312 C323.634981,312 347.045627,298.300738 355.762357,272.147601 L320.895437,269.407749 C315.914449,279.370849 306.201521,284.601476 295.243346,284.601476 C276.06654,284.601476 266.851711,269.656827 265.357414,254.712177 L359,254.712177 Z M266,233 C267.965517,218.763636 277.056034,206 295.482759,206 C312.435345,206 321.771552,220.727273 323,233 L266,233 Z M461,265.574627 C461,280.843284 442.75,287 431.5,287 C419.5,287 409,283.552239 409,272.223881 C409,263.11194 414.5,258.186567 431,256.708955 L461,254 L461,265.574627 Z M461.31992,308.512915 L461.31992,291.824723 L460.820926,291.824723 C448.84507,307.516605 431.879276,312 416.909457,312 C396.700201,312 372,302.0369 372,272.894834 C372,259.195572 376.490946,236.52952 426.639839,233.54059 L459.822938,231.54797 L459.822938,225.570111 C459.822938,210.376384 450.342052,202.904059 434.623742,202.904059 C419.903421,202.904059 411.171026,210.376384 410.422535,221.833948 L375.991952,221.833948 C377.239437,202.156827 391.211268,177 436.120724,177 C467.806841,177 494.253521,188.95572 494.253521,218.346863 L494.253521,292.571956 C494.253521,299.297048 495.002012,303.780443 496,308.512915 L461.31992,308.512915 Z M641,309 L597.303221,309 L558.761902,252.55083 L558.761902,308.973909 L523,308.973909 L523,122 L558.761902,122 L558.761902,247.992787 L585.233777,227.07094 L641,309 Z M637,182 L637,187.026038 L585,227 L585,187.012647 L585.012642,187.012647 L585.012642,182 L637,182 Z" id="iseak"></path>
        </g>
    </g>
</svg>
